<svg xmlns="http://www.w3.org/2000/svg" xmlns:xlink="http://www.w3.org/1999/xlink" width="24" height="24" viewBox="0 0 24 24">
  <defs>
    <clipPath id="clip-path">
      <rect id="Rectangle_122" data-name="Rectangle 122" width="24" height="24" transform="translate(0.25)" fill="#fff" stroke="#707070" stroke-width="1"/>
    </clipPath>
  </defs>
  <g id="Android" transform="translate(-0.25)" clip-path="url(#clip-path)">
    <g id="bxl-android" transform="translate(4 4)">
      <path id="Path_77" data-name="Path 77" d="M18.344,8.71a1.278,1.278,0,0,0-1.279,1.278v4.53a1.279,1.279,0,0,0,2.558,0V9.988A1.278,1.278,0,0,0,18.344,8.71Zm-12.688,0A1.278,1.278,0,0,0,4.377,9.988v4.53a1.279,1.279,0,0,0,2.558,0V9.988A1.277,1.277,0,0,0,5.656,8.71ZM14.545,4.9l.768-1.388a.345.345,0,1,0-.6-.335L13.92,4.6a5.2,5.2,0,0,0-3.84,0L9.291,3.179a.345.345,0,1,0-.6.335L9.455,4.9A4.408,4.408,0,0,0,7.148,8.71a.206.206,0,0,0,0,.034.062.062,0,0,0,0,.019h9.7V8.71A4.409,4.409,0,0,0,14.545,4.9ZM9.76,6.869a.347.347,0,1,1,.349-.344.347.347,0,0,1-.349.344Zm4.48,0a.346.346,0,1,1,.346-.346.347.347,0,0,1-.346.346ZM7.148,16.12a1.173,1.173,0,0,0,1.174,1.171h.586v2.4a1.279,1.279,0,0,0,2.558,0v-2.4h1.066v2.4a1.279,1.279,0,0,0,2.558,0v-2.4h.586A1.173,1.173,0,0,0,16.85,16.12V9.028h-9.7V16.12Z" transform="translate(-4.377 -2.999)" fill="#3d3d3d"/>
    </g>
  </g>
</svg>
