<svg xmlns="http://www.w3.org/2000/svg" xmlns:xlink="http://www.w3.org/1999/xlink" width="24" height="24" viewBox="0 0 24 24">
  <defs>
    <clipPath id="clip-path">
      <rect id="Rectangle_123" data-name="Rectangle 123" width="24" height="24" fill="#fff" stroke="#707070" stroke-width="1"/>
    </clipPath>
  </defs>
  <g id="Apple" clip-path="url(#clip-path)">
    <g id="bxl-apple" transform="translate(4 3)">
      <path id="Path_78" data-name="Path 78" d="M19.665,16.811a10.316,10.316,0,0,1-1.021,1.837,9.375,9.375,0,0,1-1.316,1.592,2.558,2.558,0,0,1-1.692.744,4.24,4.24,0,0,1-1.562-.373,4.477,4.477,0,0,0-1.683-.371,4.632,4.632,0,0,0-1.73.371A4.615,4.615,0,0,1,9.166,21a2.4,2.4,0,0,1-1.729-.764A9.842,9.842,0,0,1,6.06,18.592,11.379,11.379,0,0,1,4.605,15.7a10.6,10.6,0,0,1-.611-3.447A6.294,6.294,0,0,1,4.82,8.962,4.857,4.857,0,0,1,6.55,7.211a4.65,4.65,0,0,1,2.34-.662,5.482,5.482,0,0,1,1.81.422,5.843,5.843,0,0,0,1.436.422,8.651,8.651,0,0,0,1.593-.5,5.26,5.26,0,0,1,2.163-.384,4.593,4.593,0,0,1,3.6,1.9,4,4,0,0,0-2.123,3.637,4.01,4.01,0,0,0,1.317,3.023A4.33,4.33,0,0,0,20,15.929c-.106.307-.218.6-.336.882ZM16,2.38a4.059,4.059,0,0,1-1.039,2.659,3.544,3.544,0,0,1-2.941,1.452A2.955,2.955,0,0,1,12,6.131a4.159,4.159,0,0,1,1.1-2.688,4.247,4.247,0,0,1,1.343-1.009A4,4,0,0,1,15.979,2,3.767,3.767,0,0,1,16,2.38Z" transform="translate(-3.994 -1.999)" fill="#3d3d3d"/>
    </g>
  </g>
</svg>
