<svg xmlns="http://www.w3.org/2000/svg" xmlns:xlink="http://www.w3.org/1999/xlink" width="86" height="80.833" viewBox="0 0 86 80.833">
  <defs>
    <clipPath id="clip-path">
      <rect id="Rectangle_2" data-name="Rectangle 2" width="66" height="66" fill="none" stroke="#ffd0cc" stroke-width="5"/>
    </clipPath>
    <clipPath id="clip-path-2">
      <rect id="Rectangle_125" data-name="Rectangle 125" width="22" height="22" transform="translate(-0.311 -0.311)" fill="none" stroke="#fff" stroke-width="1"/>
    </clipPath>
  </defs>
  <g id="Group_215" data-name="Group 215" transform="translate(-193 -231)">
    <g id="Notification_icon" transform="matrix(0.966, -0.259, 0.259, 0.966, 193, 248.082)">
      <g id="Mask_Group_1" data-name="Mask Group 1" clip-path="url(#clip-path)">
        <g id="bell" transform="translate(8.25 5.5)">
          <path id="Path_3" data-name="Path 3" d="M44.25,18.5a16.5,16.5,0,0,0-33,0C11.25,37.75,3,43.25,3,43.25H52.5s-8.25-5.5-8.25-24.75" transform="translate(-3 -2)" fill="none" stroke="#ffd0cc" stroke-linecap="round" stroke-linejoin="round" stroke-width="5"/>
          <path id="Path_4" data-name="Path 4" d="M19.785,21a5.5,5.5,0,0,1-9.515,0" transform="translate(9.723 31.25)" fill="none" stroke="#ffd0cc" stroke-linecap="round" stroke-linejoin="round" stroke-width="5"/>
        </g>
      </g>
    </g>
    <circle id="Ellipse_26" data-name="Ellipse 26" cx="16" cy="16" r="16" transform="translate(247 262)" fill="#db4c3f"/>
    <g id="Mask_Group_44" data-name="Mask Group 44" transform="translate(252.311 267.311)" clip-path="url(#clip-path-2)">
      <g id="check" transform="translate(3.563 5.344)">
        <path id="Path_83" data-name="Path 83" d="M18.252,6l-9.8,9.8L4,11.344" transform="translate(-4 -6)" fill="none" stroke="#fff" stroke-linecap="round" stroke-linejoin="round" stroke-width="2"/>
      </g>
    </g>
  </g>
</svg>
