<svg xmlns="http://www.w3.org/2000/svg" xmlns:xlink="http://www.w3.org/1999/xlink" width="24" height="24" viewBox="0 0 24 24">
  <defs>
    <clipPath id="clip-path">
      <rect id="Rectangle_120" data-name="Rectangle 120" width="24" height="24" fill="#fff" stroke="#707070" stroke-width="1"/>
    </clipPath>
  </defs>
  <g id="Chrome" clip-path="url(#clip-path)">
    <g id="bxl-chrome" transform="translate(2 2)">
      <path id="Path_79" data-name="Path 79" d="M10.742,2.04A10.736,10.736,0,0,0,6.461,3.666c-1.01.664-2.4,2.02-2.309,2.251.193.5,3.28,5.658,3.33,5.562a1.831,1.831,0,0,0,.123-.49,4.578,4.578,0,0,1,2.9-3.253c.568-.221.683-.221,5.495-.27l4.917-.047-.4-.646a10.046,10.046,0,0,0-6.2-4.512,14.7,14.7,0,0,0-3.58-.22Z" transform="translate(-1.997 -2.007)" fill="#3d3d3d"/>
      <path id="Path_80" data-name="Path 80" d="M3.2,7.217a11.722,11.722,0,0,0-1.107,3.358A10.054,10.054,0,0,0,10.2,21.823l.356.029,1.674-2.838c.915-1.559,1.655-2.849,1.636-2.868a1.626,1.626,0,0,0-.481.125,4.491,4.491,0,0,1-4.57-1.116,29.423,29.423,0,0,1-2.84-4.542C4.71,8.41,3.642,6.6,3.6,6.6a3.285,3.285,0,0,0-.4.616Z" transform="translate(-1.997 -2.007)" fill="#3d3d3d"/>
      <path id="Path_81" data-name="Path 81" d="M15.15,8.8a4.485,4.485,0,0,1,1.116,4.59c-.086.26-1.212,2.271-2.5,4.485s-2.349,4.031-2.349,4.06a6.46,6.46,0,0,0,2.175-.087,9.954,9.954,0,0,0,8.265-8.276,9.463,9.463,0,0,0-.307-4.5l-.25-.837H14.592l.557.568Z" transform="translate(-1.997 -2.007)" fill="#3d3d3d"/>
      <path id="Path_82" data-name="Path 82" d="M10.608,8.563A3.607,3.607,0,0,0,8.53,10.71a2.962,2.962,0,0,0-.173,1.424A2.824,2.824,0,0,0,8.7,13.645a3.629,3.629,0,0,0,1.751,1.7,2.8,2.8,0,0,0,1.54.25,2.788,2.788,0,0,0,1.559-.26,4.02,4.02,0,0,0,1.79-1.79A2.79,2.79,0,0,0,15.6,11.99a2.8,2.8,0,0,0-.25-1.54,3.622,3.622,0,0,0-1.7-1.75,2.888,2.888,0,0,0-1.56-.348,2.844,2.844,0,0,0-1.48.213Z" transform="translate(-1.997 -2.007)" fill="#3d3d3d"/>
    </g>
  </g>
</svg>
