<svg xmlns="http://www.w3.org/2000/svg" xmlns:xlink="http://www.w3.org/1999/xlink" width="24" height="24" viewBox="0 0 24 24">
  <defs>
    <clipPath id="clip-path">
      <rect id="Rectangle_121" data-name="Rectangle 121" width="24" height="24" transform="translate(-0.25)" fill="#fff" stroke="#707070" stroke-width="1"/>
    </clipPath>
  </defs>
  <g id="Firefox" transform="translate(0.25)" clip-path="url(#clip-path)">
    <g id="bxl-firefox" transform="translate(2 2)">
      <path id="Path_76" data-name="Path 76" d="M21.634,11.138a2.16,2.16,0,0,0-.06-.286l-.187.236a6.354,6.354,0,0,0-.228-1.274A8.66,8.66,0,0,0,20.568,8.3a5.33,5.33,0,0,0-.54-.92c-.109-.17-.2-.3-.221-.322-.362-.589-.767-.947-1.249-1.621a4.942,4.942,0,0,1-.615-1.679,6.091,6.091,0,0,0-.3,1.1c-.483-.489-.913-.846-1.168-1.08-1.267-1.183-1.113-1.79-1.113-1.79s-2.364,2.635-1.342,5.377a5.278,5.278,0,0,0,1.764,2.347,6.437,6.437,0,0,1,2.609,3.1,5.2,5.2,0,0,0-1.967-2.087,4.658,4.658,0,0,1,.371,1.884,4.468,4.468,0,0,1-4.476,4.465,4.28,4.28,0,0,1-.985-.109,4.117,4.117,0,0,1-1.107-.379,4.4,4.4,0,0,1-1.334-1.226v-.007a.372.372,0,0,0,.075.024,3.492,3.492,0,0,0,.567.153,3.558,3.558,0,0,0,2.245-.263c.708-.4,1.139-.685,1.484-.574s.608-.22.373-.565a1.853,1.853,0,0,0-1.79-.692c-.711.1-1.36.6-2.28.117-.067-.032-.117-.066-.176-.1s.2.051.134.009a4.138,4.138,0,0,1-.582-.347c-.009-.009.145.043.126.033a2.235,2.235,0,0,1-.608-.614,1.118,1.118,0,0,1-.04-.973.844.844,0,0,1,.38-.354l.192.1s-.059-.1-.085-.151c.01-.008.019,0,.035-.008a4.365,4.365,0,0,1,.455.236.6.6,0,0,1,.212.186s.043-.017.009-.108A.511.511,0,0,0,9.4,11.2h.018a1.866,1.866,0,0,1,.261.167,1.336,1.336,0,0,0,.112-.563.825.825,0,0,0-.043-.313c-.035-.067.017-.093.075-.025a.545.545,0,0,0-.051-.152.34.34,0,0,1,.051-.062.578.578,0,0,1,.136-.107,5.557,5.557,0,0,1,.92-.474q.262-.1.515-.228a1.386,1.386,0,0,0,.186-.136,1.206,1.206,0,0,0,.413-.718A.414.414,0,0,0,12,8.481V8.412c-.034-.144-.279-.245-1.553-.372a1.1,1.1,0,0,1-.911-.852V7.2q-.028.072-.051.146c.016-.053.033-.094.051-.146V7.188a3.257,3.257,0,0,1,1.249-1.553c.031-.025-.126.007-.093-.017a2.935,2.935,0,0,1,.329-.145c.059-.018-.245-.134-.515-.11a1.545,1.545,0,0,0-.473.11c.067-.049.252-.118.21-.118a2.837,2.837,0,0,0-.97.363.243.243,0,0,1,.018-.083,1.474,1.474,0,0,0-.6.464V5.987a2.706,2.706,0,0,0-.3.28H8.388a3.92,3.92,0,0,0-2.2-.184l-.008-.009h.008A1.684,1.684,0,0,1,5.8,5.635l-.01.007-.015-.016a2.188,2.188,0,0,1-.147-.246c-.04-.06-.074-.136-.116-.21A.008.008,0,0,0,5.5,5.162c-.01,0-.026.077-.033.049a2.668,2.668,0,0,1-.179-1.053H5.28a1.12,1.12,0,0,0-.448.589c-.041.086-.067.128-.092.179V4.9l.024-.125c-.006.009-.006.017-.017.025a1.06,1.06,0,0,0-.15.23,1.117,1.117,0,0,0-.1.243V5.229c0-.034.009-.085,0-.067l-.009.023a5.968,5.968,0,0,0-.506,1.9,2.441,2.441,0,0,0-.016.337v.018a4.422,4.422,0,0,0-.514.683,9.7,9.7,0,0,0-1.082,2.659A6.084,6.084,0,0,1,2.95,9.763a9.332,9.332,0,0,0-.659,3.454c.076-.346.169-.684.278-1.022a8.737,8.737,0,0,0,.787,4.062,9.4,9.4,0,0,0,3.738,4.229,8.052,8.052,0,0,0,2.169,1.048c.1.033.213.074.313.109a.357.357,0,0,0-.092-.042,9.912,9.912,0,0,0,2.818.413c3.387,0,4.5-1.292,4.61-1.418a1.7,1.7,0,0,0,.4-.541,1.637,1.637,0,0,0,.195-.084l.041-.016a.629.629,0,0,1,.075-.034,7.11,7.11,0,0,0,1.437-.9,3.475,3.475,0,0,0,1.326-1.951,1.221,1.221,0,0,0,.024-.894c.05-.084.094-.161.1-.178a7.954,7.954,0,0,0,1.2-3.876V12.01a4.918,4.918,0,0,0-.072-.872Z" transform="translate(-2.291 -1.988)" fill="#3d3d3d"/>
    </g>
  </g>
</svg>
