<svg xmlns="http://www.w3.org/2000/svg" xmlns:xlink="http://www.w3.org/1999/xlink" width="24" height="24" viewBox="0 0 24 24">
  <defs>
    <clipPath id="clip-path">
      <rect id="Rectangle_124" data-name="Rectangle 124" width="24" height="24" transform="translate(0.5)" fill="#fff" stroke="#707070" stroke-width="1"/>
    </clipPath>
  </defs>
  <g id="Outlook" transform="translate(-0.5)" clip-path="url(#clip-path)">
    <path id="outlook-icon" d="M0,2.2,11.414,0l-.04,19.794L0,17.434ZM4.047,12.484a4.268,4.268,0,0,1-.691-3.917c.575-1.834,2.032-2.454,3.252-2.029A2.775,2.775,0,0,1,8.256,8.264a4.346,4.346,0,0,1-.668,4.121,2.258,2.258,0,0,1-3.538.1Zm.889-.959A3.263,3.263,0,0,1,4.6,9.079c.28-1.143,1-1.531,1.593-1.265A1.605,1.605,0,0,1,7,8.892a3.4,3.4,0,0,1,.122.889,3.19,3.19,0,0,1-.45,1.684.97.97,0,0,1-1.732.062Zm7.223-7.353h6.625a.675.675,0,0,1,.674.674v.243L14.25,8.6c-.068.045-.235.175-.374.263-.2.133-.218.108-.433-.014-.331-.184-.9-.575-1.288-.841V4.172Zm7.3,2.476v7.087a1.037,1.037,0,0,1-1.033,1.033H12.158V9.526c.376.249.877.577,1.186.767.249.153.294.224.572.062.127-.074.252-.17.337-.226L19.46,6.651Z" transform="translate(2.326 2.349)" fill="#3d3d3d" fill-rule="evenodd"/>
  </g>
</svg>
