<svg xmlns="http://www.w3.org/2000/svg" xmlns:xlink="http://www.w3.org/1999/xlink" width="16" height="16" viewBox="0 0 16 16">
  <defs>
    <clipPath id="clip-path">
      <rect id="Rectangle_81" data-name="Rectangle 81" width="16" height="16" transform="translate(1015 1268)" fill="#3d3d3d" stroke="#3d3d3d" stroke-width="0.5"/>
    </clipPath>
  </defs>
  <g id="Mask_Group_32" data-name="Mask Group 32" transform="translate(-1015 -1268)" clip-path="url(#clip-path)">
    <g id="noun_Sort_2161055" transform="translate(1016.643 1268.382)">
      <path id="Path_58" data-name="Path 58" d="M13.027,5.735,10.482,3.208a.542.542,0,0,0-.771,0L7.184,5.753a.545.545,0,0,0,.771.771L9.569,4.91v8.828a.545.545,0,1,0,1.091,0V4.91l1.6,1.6a.545.545,0,1,0,.771-.771Z" transform="translate(-7.037 -3.047)" fill="#3d3d3d" stroke="#3d3d3d" stroke-width="0.5"/>
      <path id="Path_59" data-name="Path 59" d="M24.208,22.6l2.545,2.527a.542.542,0,0,0,.771,0L30.051,22.6a.545.545,0,1,0-.771-.771l-1.614,1.6V14.6a.545.545,0,1,0-1.091,0v8.828l-1.6-1.6a.545.545,0,1,0-.771.771Z" transform="translate(-17.862 -10.049)" fill="#3d3d3d" stroke="#3d3d3d" stroke-width="0.5"/>
    </g>
  </g>
</svg>
